# xmcd CD database file
#
# Track frame offsets:
#	150
#	15735
#	39395
#	55037
#
# Disc length: 1048 seconds
#
# Revision: 12
# Processed by: cddbd v1.5.2PL0 Copyright (c) Steve Scherf et al.
# Submitted via: CDex 1.51
#
DISCID=26041604
DTITLE=Stefan Raab - Maschen-Draht-Zaun
DYEAR=1999
DGENRE=Country
TTITLE0=Maschen-Draht-Zaun (Radio Edit)
TTITLE1=Maschen-Draht-Zaun (Ext X-Rated Version)
TTITLE2=Maschen-Draht-Zaun (Sing-A-Long Version)
TTITLE3=Maschen-Draht-Zaun (Early 60's Full Stereo Mix)
EXTD=YEAR: 1999
EXTT0=
EXTT1=
EXTT2=
EXTT3=
PLAYORDER=
